<?xml version="1.0" encoding="UTF-8" standalone="no"?>
<!-- Created with Inkscape (http://www.inkscape.org/) -->

<svg
   width="18mm"
   height="4mm"
   viewBox="0 0 18 4"
   version="1.1"
   id="svg1"
   inkscape:version="1.3.2 (091e20ef0f, 2023-11-25)"
   sodipodi:docname="topside.svg"
   xmlns:inkscape="http://www.inkscape.org/namespaces/inkscape"
   xmlns:sodipodi="http://sodipodi.sourceforge.net/DTD/sodipodi-0.dtd"
   xmlns="http://www.w3.org/2000/svg"
   xmlns:svg="http://www.w3.org/2000/svg">
  <sodipodi:namedview
     id="namedview1"
     pagecolor="#ffffff"
     bordercolor="#000000"
     borderopacity="0.25"
     inkscape:showpageshadow="2"
     inkscape:pageopacity="0.0"
     inkscape:pagecheckerboard="0"
     inkscape:deskcolor="#d1d1d1"
     inkscape:document-units="mm"
     inkscape:zoom="7.88792"
     inkscape:cx="24.59457"
     inkscape:cy="9.7617623"
     inkscape:window-width="1463"
     inkscape:window-height="842"
     inkscape:window-x="0"
     inkscape:window-y="0"
     inkscape:window-maximized="1"
     inkscape:current-layer="layer1" />
  <defs
     id="defs1" />
  <g
     inkscape:label="Layer 1"
     inkscape:groupmode="layer"
     id="layer1">
    <path
       style="font-size:3.175px;font-family:'Source Code Pro';-inkscape-font-specification:'Source Code Pro';text-align:center;letter-spacing:0.396875px;text-anchor:middle;stroke:#000000;stroke-width:0.264583"
       d="m 2.4833097,3.0414 h 0.24765 V 2 c 0,-0.2032 -0.0254,-0.5588 -0.04445,-0.7366 h 0.00635 l 0.12065,0.4064 0.2921,0.81915 h 0.1905 l 0.29845,-0.81915 0.117475,-0.4064 h 0.00953 C 3.7088597,1.4412 3.6771097,1.7968 3.6771097,2 v 1.0414 h 0.254 V 0.95859999 h -0.32385 L 3.3119847,1.8476 3.2135597,2.18415 h -0.0127 l -0.1016,-0.33655 -0.2921,-0.88900001 h -0.32385 z m 3.025776,0.0381 c 0.4699,0 0.8001,-0.4064 0.8001,-1.089025 0,-0.6731 -0.3302,-1.06997501 -0.8001,-1.06997501 -0.4699,0 -0.8001,0.39687501 -0.8001,1.06997501 0,0.682625 0.3302,1.089025 0.8001,1.089025 z m 0,-0.231775 c -0.3175,0 -0.52705,-0.32385 -0.52705,-0.85725 0,-0.523875 0.20955,-0.8382 0.52705,-0.8382 0.3175,0 0.52705,0.314325 0.52705,0.8382 0,0.5334 -0.20955,0.85725 -0.52705,0.85725 z M 7.1346868,3.0414 h 0.52705 c 0.612775,0 0.9525,-0.38735 0.9525,-1.050925 0,-0.6604 -0.339725,-1.03187501 -0.9652,-1.03187501 h -0.51435 z m 0.263525,-0.2159 v -1.651 h 0.231775 c 0.47625,0 0.7112,0.2921 0.7112,0.815975 0,0.52705 -0.23495,0.835025 -0.7112,0.835025 z m 2.7305012,0.254 c 0.4572,0 0.7366,-0.263525 0.7366,-0.593725 0,-0.307975 -0.2032,-0.45085 -0.460375,-0.555625 l -0.2921,-0.127 C 9.9350383,1.730125 9.7413634,1.6571 9.7413634,1.457075 c 0,-0.187325 0.1619249,-0.3048 0.4032246,-0.3048 0.2159,0 0.37465,0.0762 0.511175,0.19685 l 0.1397,-0.17145 c -0.1524,-0.1524 -0.381,-0.25717501 -0.64135,-0.25717501 -0.3968746,0 -0.6826246,0.23495001 -0.6826246,0.55245001 0,0.3048 0.2413,0.454025 0.4508499,0.536575 L 10.220788,2.1397 c 0.212725,0.092075 0.37465,0.155575 0.37465,0.377825 0,0.193675 -0.168275,0.3302 -0.454025,0.3302 -0.2381247,0 -0.4540246,-0.104775 -0.6095996,-0.26035 l -0.15875,0.18415 C 9.5603884,2.95885 9.8239133,3.0795 10.128713,3.0795 Z m 1.584326,-0.0381 h 0.2667 V 2.060325 h 0.86995 V 3.0414 h 0.2667 V 0.95859999 h -0.2667 V 1.831725 h -0.86995 V 0.95859999 h -0.2667 z m 3.003551,0.0381 c 0.4699,0 0.8001,-0.4064 0.8001,-1.089025 0,-0.6731 -0.3302,-1.06997501 -0.8001,-1.06997501 -0.4699,0 -0.8001,0.39687501 -0.8001,1.06997501 0,0.682625 0.3302,1.089025 0.8001,1.089025 z m 0,-0.231775 c -0.3175,0 -0.52705,-0.32385 -0.52705,-0.85725 0,-0.523875 0.20955,-0.8382 0.52705,-0.8382 0.3175,0 0.52705,0.314325 0.52705,0.8382 0,0.5334 -0.20955,0.85725 -0.52705,0.85725 z"
       id="text1"
       aria-label="MODSHO" />
    <rect
       style="fill:none;stroke:#000000;stroke-width:0.264583"
       id="rect1"
       width="17.5"
       height="3.5"
       x="0.25"
       y="0.25" />
  </g>
</svg>
